<svg id="svg" xmlns="http://www.w3.org/2000/svg" xmlns:xlink="http://www.w3.org/1999/xlink" width="400" height="340.15748031496065" viewBox="0, 0, 400,340.15748031496065" version="1.1"><g id="svgg"><path id="path0" d="M17.818 0.911 C 9.234 3.603,2.294 11.384,0.624 20.190 C -0.224 24.660,-0.232 312.936,0.616 317.405 C 2.062 325.034,7.734 332.239,14.959 335.625 L 18.583 337.323 169.134 337.323 L 319.685 337.323 323.309 335.625 C 330.533 332.239,336.205 325.034,337.652 317.405 C 338.514 312.863,338.490 24.661,337.628 20.086 C 336.209 12.554,330.543 5.404,323.309 2.013 L 319.685 0.315 170.079 0.197 C 47.599 0.100,19.991 0.230,17.818 0.911 M87.655 49.909 C 110.871 61.383,108.775 94.403,84.302 102.726 C 64.645 109.411,44.127 92.157,47.299 71.611 C 50.214 52.737,70.885 41.621,87.655 49.909 M237.881 123.506 C 265.924 126.633,280.749 141.554,285.700 171.635 C 287.387 181.883,287.850 201.382,287.438 244.882 L 287.037 287.244 262.603 287.244 L 238.168 287.244 237.963 238.898 C 237.737 185.826,237.766 186.235,233.695 178.256 C 224.387 160.012,192.550 162.898,185.216 182.652 C 181.844 191.733,181.853 191.582,181.586 241.102 L 181.337 287.244 156.810 287.244 L 132.283 287.244 132.283 207.244 L 132.283 127.244 155.906 127.244 L 179.528 127.244 179.528 137.953 C 179.528 149.338,179.942 150.698,182.232 146.823 C 192.431 129.556,213.389 120.775,237.881 123.506 M100.157 207.244 L 100.157 287.244 75.591 287.244 L 51.024 287.244 51.024 207.244 L 51.024 127.244 75.591 127.244 L 100.157 127.244 100.157 207.244 M369.314 294.421 C 343.201 302.937,350.638 341.966,378.001 340.008 C 401.831 338.303,407.805 305.676,386.142 295.546 C 381.938 293.580,373.602 293.023,369.314 294.421 M382.258 297.665 C 396.252 301.821,400.807 320.453,390.378 330.882 C 377.766 343.494,356.515 334.370,356.542 316.354 C 356.561 303.167,369.390 293.844,382.258 297.665 M367.874 316.850 L 367.874 329.449 369.764 329.449 L 371.654 329.449 371.654 324.094 L 371.654 318.740 373.701 318.741 C 375.586 318.742,376.014 319.166,379.106 324.096 C 382.286 329.167,382.580 329.449,384.685 329.449 C 387.383 329.449,387.339 329.276,382.993 322.837 C 379.977 318.367,379.884 318.110,381.280 318.110 C 383.852 318.110,386.142 315.033,386.142 311.578 C 386.142 305.569,384.052 304.252,374.519 304.252 L 367.874 304.252 367.874 316.850 M381.187 309.239 C 383.882 312.568,381.608 314.961,375.748 314.961 L 371.654 314.961 371.654 311.108 L 371.654 307.255 375.832 307.521 C 379.247 307.738,380.226 308.052,381.187 309.239 " stroke="none" fill="#000000" fill-rule="evenodd"></path></g></svg>